<?xml version="1.0" encoding="UTF-8"?>
<svg version="1.1" xmlns="http://www.w3.org/2000/svg" width="891" height="211">
<path d="M0 0 C0.99 0.99 0.99 0.99 2 2 C4.02946303 1.87328315 4.02946303 1.87328315 6.25 1.25 C7.05824219 1.05148438 7.86648438 0.85296875 8.69921875 0.6484375 C11.14940935 -0.01012935 11.14940935 -0.01012935 14.0625 -1.125 C18.40773975 -2.41932673 22.8362739 -3.04907932 27.0625 -1 C29.46808066 4.13190541 26.31662346 12.84031195 25.21484375 18.2890625 C25.0381868 19.17402405 24.86152985 20.0589856 24.67951965 20.97076416 C24.1022887 23.85621284 23.52037361 26.74068619 22.9375 29.625 C22.73813843 30.61421448 22.53877686 31.60342896 22.33337402 32.62261963 C21.0963417 38.75853201 19.85192951 44.89291849 18.60394287 51.02661133 C18.02466336 53.87857501 17.448574 56.73116301 16.87353516 59.58398438 C16.00626173 63.88257593 15.12880882 68.17896649 14.24319458 72.47381592 C13.9200428 74.0471238 13.59984392 75.62104175 13.28292847 77.19561768 C8.9373824 98.74003714 2.82727438 118.60610011 -16 132 C-26.33462324 138.20488314 -37.53516188 139.64375345 -49.359375 137.34765625 C-57.45590376 134.95363188 -62.90913071 131.05676594 -68 124.375 C-69.80816098 118.2724567 -70.42079786 111.43622593 -67.9453125 105.44921875 C-66.201734 102.62751035 -64.34377107 100.34377107 -62 98 C-59.984375 98.08203125 -59.984375 98.08203125 -58 99 C-57.015625 101.07421875 -57.015625 101.07421875 -56.25 103.6875 C-53.74993523 110.56759951 -49.44602598 113.31364686 -43.0625 116.4375 C-38.09924369 117.34911851 -33.57632342 117.39358013 -29.04296875 114.94140625 C-18.16851852 106.57826697 -16.69487743 91.55760889 -14 79 C-14.721875 79.74894531 -15.44375 80.49789062 -16.1875 81.26953125 C-18.69251414 83.70148248 -21.14089047 85.69952541 -24 87.6875 C-24.825 88.26886719 -25.65 88.85023438 -26.5 89.44921875 C-32.87292722 93.40242517 -38.62750671 93.75738228 -46 93 C-52.24212153 91.26550034 -56.45922613 87.31667602 -60 82 C-61.19076428 79.69036664 -62.10114356 77.44688698 -63 75 C-63.474375 75.825 -63.94875 76.65 -64.4375 77.5 C-69.54346128 85.11383625 -77.41772191 91.46128564 -86.40625 93.5625 C-93.23165066 94.57367047 -98.94880488 93.53308132 -104.82421875 89.859375 C-108.20431098 87.27315431 -109.74602288 84.99811596 -111 81 C-112.24259731 69.44637357 -109.75137163 58.76667018 -107 47.625 C-106.42194859 45.25217657 -105.84917509 42.87845062 -105.28808594 40.5015564 C-104.94234228 39.03977371 -104.58701122 37.58020732 -104.21972656 36.12368774 C-103.05113226 31.2232187 -102.09921925 26.01222138 -103 21 C-104.67162803 18.90176926 -105.35813994 18.0782458 -108.05078125 17.75 C-109.17033203 17.87375 -109.17033203 17.87375 -110.3125 18 C-111.05113281 18.061875 -111.78976562 18.12375 -112.55078125 18.1875 C-118.37645445 20.12009972 -121.76923476 24.47587498 -124.5 29.75 C-130.60614749 42.13539867 -132.66251805 56.34877128 -135.37890625 69.7734375 C-135.59981934 70.86027832 -135.82073242 71.94711914 -136.04833984 73.06689453 C-136.46484901 75.14116744 -136.87066483 77.21762521 -137.26416016 79.29638672 C-139.06228154 88.42808426 -139.06228154 88.42808426 -142 92 C-149.29495767 94.86587623 -156.79664491 94.40111836 -164.1875 91.9375 C-166.52633301 89.43736816 -166.26632476 87.70239205 -166.18685913 84.3885498 C-165.83352894 79.87206318 -164.90051336 75.47847683 -163.98828125 71.046875 C-163.77981064 70.00062454 -163.57134003 68.95437408 -163.35655212 67.87641907 C-162.68248692 64.49943721 -161.99807324 61.12466282 -161.3125 57.75 C-160.38264417 53.14013458 -159.45731154 48.52938054 -158.53515625 43.91796875 C-158.30964081 42.79245102 -158.08412537 41.66693329 -157.85177612 40.50730896 C-156.59972979 34.20373658 -155.43457985 27.89901676 -154.43359375 21.55078125 C-154.12071411 19.60123535 -154.12071411 19.60123535 -153.80151367 17.61230469 C-153.44507321 15.31808411 -153.10913928 13.02054158 -152.7980957 10.71972656 C-151.68282027 3.6074558 -151.68282027 3.6074558 -148.0625 0.38671875 C-141.42041879 -2.62085629 -135.25606564 -3.82211581 -128 -3 C-124.375 -1.5 -124.375 -1.5 -122 0 C-122 3.66666667 -122 7.33333333 -122 11 C-121.34 10.29875 -120.68 9.5975 -120 8.875 C-112.63434695 1.5715919 -105.52192463 -3.02772655 -95 -3.4375 C-87.7525476 -3.22729646 -83.47269163 -1.2039208 -78.125 3.5625 C-74.02333929 9.26002871 -73.50627406 15.52768452 -74.6015625 22.31640625 C-75.4059612 26.60623946 -76.35904429 30.85992069 -77.33837891 35.11279297 C-78.28849233 39.25893369 -79.18816532 43.41512522 -80.07397461 47.57543945 C-80.51468752 49.64499161 -80.9642986 51.71267496 -81.42407227 53.77807617 C-83.79526617 63.40570425 -83.79526617 63.40570425 -81.4375 72.5625 C-78.9869524 74.27705809 -78.9869524 74.27705809 -75.625 74.0625 C-71.18250718 72.76039004 -69.28864364 71.2103426 -66 68 C-64.51243887 65.02487774 -64.8010476 62.19059001 -64.6875 58.875 C-63.75032882 40.96326514 -58.07060974 24.56248286 -46 11 C-45.45730469 10.37609375 -44.91460938 9.7521875 -44.35546875 9.109375 C-33.18967039 -2.91935391 -14.72904312 -9.6305282 0 0 Z M-21.9375 18.3125 C-31.77782866 28.58640635 -36.03054315 42.82016512 -36.375 56.75 C-36.23831714 62.55010731 -35.83591444 66.91491204 -33 72 C-30.83836181 74.28168358 -30.83836181 74.28168358 -28 75 C-23.0598487 74.15912318 -19.23393588 71.77992505 -16 68 C-7.42828061 55.39324731 -4.82669474 37.85711723 -3 23 C-2.89300781 22.29617187 -2.78601563 21.59234375 -2.67578125 20.8671875 C-2.40110282 18.80365556 -2.40110282 18.80365556 -3 16 C-10.22002786 9.74264252 -15.44427649 12.43588104 -21.9375 18.3125 Z " fill="#020202" transform="translate(859,70)"/>
<path d="M0 0 C8.19312085 6.80659271 12.58955986 14.57916696 13.90625 25.1875 C14.56904501 37.30475232 10.09136932 48.07440946 2.46875 57.4375 C-4.83526778 65.13330418 -13.95809622 69.64169636 -23.96875 72.6875 C-15.05446137 102.96148793 -15.05446137 102.96148793 5.46875 125.1875 C7.2321875 125.93 7.2321875 125.93 9.03125 126.6875 C8.61906909 131.94280665 7.96162356 135.05946287 4.03125 138.6875 C-1.74029701 141.87400821 -7.55899191 142.64352177 -13.96875 141.25390625 C-23.28258172 138.32514276 -29.34481784 130.9466768 -33.96875 122.6875 C-37.77909489 114.54319808 -40.57905495 106.09317468 -43.19116211 97.50195312 C-43.79181494 95.52777602 -44.40209721 93.55675567 -45.01367188 91.5859375 C-47.96875 81.97075893 -47.96875 81.97075893 -47.96875 79.6875 C-50.60875 80.0175 -53.24875 80.3475 -55.96875 80.6875 C-56.12956055 81.68378418 -56.29037109 82.68006836 -56.45605469 83.70654297 C-61.83631901 116.94119421 -61.83631901 116.94119421 -64.09375 127.75 C-64.22749023 128.44270996 -64.36123047 129.13541992 -64.49902344 129.84912109 C-65.131046 132.70214531 -65.74246995 134.45445089 -67.796875 136.5703125 C-74.09447838 139.80972719 -81.25558966 138.76163026 -87.9375 137.35546875 C-89.96875 136.6875 -89.96875 136.6875 -91.96875 134.6875 C-92.5115609 122.97756533 -89.30941588 110.54703678 -87.34375 99.0625 C-87.16612122 98.01504608 -86.98849243 96.96759216 -86.80548096 95.88839722 C-84.57559978 82.81227712 -82.0806417 69.98203737 -78.48730469 57.20458984 C-74.95406263 44.49999687 -72.79088977 31.51582311 -70.52197266 18.53710938 C-69.96875 15.6875 -69.96875 15.6875 -68.96875 12.6875 C-78.86232636 17.88552611 -84.89020552 21.5736327 -89.96875 31.6875 C-94.81176231 30.95617264 -96.75525046 29.43658279 -99.96875 25.6875 C-101.67028838 20.58288485 -101.81530827 16.41588981 -99.46875 11.625 C-78.13386447 -13.4434905 -26.60232557 -19.27704752 0 0 Z M-42.96875 7.6875 C-43.15667114 8.87001343 -43.15667114 8.87001343 -43.34838867 10.07641602 C-46.06711532 27.0706153 -49.07475967 43.91454357 -52.96875 60.6875 C-45.20773865 62.73731174 -37.42407864 59.7819974 -30.59375 56 C-22.34861713 50.64000191 -18.77442438 43.41774086 -16.28125 34.125 C-15.45110254 27.64984982 -15.93889807 22.46733802 -18.96875 16.6875 C-23.07110234 11.55955958 -27.53987484 9.075811 -33.97827148 8.34667969 C-35.04634033 8.26836914 -36.11440918 8.19005859 -37.21484375 8.109375 C-38.29306396 8.0278418 -39.37128418 7.94630859 -40.48217773 7.86230469 C-41.30274658 7.80461914 -42.12331543 7.74693359 -42.96875 7.6875 Z " fill="#020202" transform="translate(473.96875,25.3125)"/>
<path d="M0 0 C0.99 0.33 1.98 0.66 3 1 C4.85570962 7.5793341 2.86298948 12.66903886 -0.36328125 18.4375 C-3.94956293 24.07176166 -7.73731583 28.35723611 -14 31 C-22.61598659 32.2290071 -30.39320501 30.39834492 -38.55517578 27.86694336 C-43.39314475 26.36988899 -47.95456091 25.49599232 -53 25 C-53.10812012 25.80904785 -53.21624023 26.6180957 -53.32763672 27.45166016 C-54.66347933 37.14711557 -56.3449732 46.75311909 -58.125 56.375 C-58.40519877 57.90099563 -58.685148 59.4270371 -58.96484375 60.953125 C-59.64036567 64.63594734 -60.31921881 68.31814576 -61 72 C-59.38931641 71.7834375 -59.38931641 71.7834375 -57.74609375 71.5625 C-56.30992644 71.37476571 -54.87372676 71.18727891 -53.4375 71 C-52.73302734 70.90460938 -52.02855469 70.80921875 -51.30273438 70.7109375 C-46.8431577 70.13550825 -42.50782441 69.81434957 -38 70 C-37 71 -37 71 -36.6875 74.125 C-37.17520635 80.17255874 -39.83300347 84.1149387 -44 88.3125 C-50.12745407 93.27534077 -58.46624702 93.03790074 -66 93 C-66.08854248 93.60593994 -66.17708496 94.21187988 -66.26831055 94.83618164 C-67.82080871 104.7853639 -69.96332855 114.60300681 -72.14868164 124.42944336 C-72.59361834 126.44564969 -73.03071609 128.46360092 -73.46020508 130.4831543 C-74.0871962 133.42917977 -74.73813016 136.36899962 -75.39453125 139.30859375 C-75.58118851 140.20758896 -75.76784576 141.10658417 -75.9601593 142.03282166 C-77.17887326 147.33816093 -78.45237655 150.61147378 -83 154 C-85.04882812 154.59936523 -85.04882812 154.59936523 -87.03125 154.55859375 C-87.75957031 154.55150391 -88.48789063 154.54441406 -89.23828125 154.53710938 C-90.35783203 154.48780273 -90.35783203 154.48780273 -91.5 154.4375 C-92.61955078 154.42879883 -92.61955078 154.42879883 -93.76171875 154.41992188 C-102.77958852 154.22041148 -102.77958852 154.22041148 -106 151 C-106.46176129 144.70977326 -105.07065444 139.0197658 -103.62890625 132.921875 C-103.38712143 131.8734845 -103.14533661 130.82509399 -102.89622498 129.74493408 C-102.12545407 126.41158707 -101.34395185 123.08085727 -100.5625 119.75 C-100.04034694 117.4949464 -99.51885544 115.2397395 -98.99804688 112.984375 C-98.04360813 108.86726955 -97.08880693 104.75026527 -96.12329102 100.63574219 C-95.93009781 99.81080261 -95.7369046 98.98586304 -95.53785706 98.13592529 C-95.10146875 96.40295032 -94.56512273 94.69536819 -94 93 C-95.11375 93.04125 -96.2275 93.0825 -97.375 93.125 C-101 93 -101 93 -103 91 C-103.46367382 85.43591415 -103.21402425 81.76562216 -100 77 C-96.74415348 74.51527503 -93.97316175 73.72420507 -90 73 C-89.83420189 72.12676338 -89.83420189 72.12676338 -89.66505432 71.23588562 C-88.51575093 65.18486026 -87.36357444 59.13438706 -86.2097168 53.08422852 C-85.77928919 50.82525483 -85.34959803 48.56614069 -84.9206543 46.30688477 C-84.30450215 43.06229165 -83.68571618 39.8182104 -83.06640625 36.57421875 C-82.87470352 35.56163498 -82.68300079 34.54905121 -82.48548889 33.50578308 C-82.30537766 32.56503433 -82.12526642 31.62428558 -81.93969727 30.6550293 C-81.78203384 29.82674118 -81.62437042 28.99845306 -81.46192932 28.14506531 C-81 26 -81 26 -80 23 C-88.02235364 24.07707526 -93.62701045 26.8192879 -98.76171875 33.18359375 C-104.8268106 41.89206703 -105.64474317 49.51695358 -105 60 C-104.5248848 62.55122012 -104.5248848 62.55122012 -103.875 64.75 C-103.58625 65.8225 -103.2975 66.895 -103 68 C-105.56400777 70.56400777 -106.68782015 70.32633634 -110.25 70.375 C-115.34178576 70.26199692 -118.16615609 69.55999791 -122 66 C-127.40985817 60.30302646 -128.94278931 54.00593541 -129.03125 46.265625 C-128.42044595 35.45439336 -124.66035802 27.54979615 -117 20 C-116.42636719 19.40445312 -115.85273437 18.80890625 -115.26171875 18.1953125 C-102.73565546 6.1252301 -86.11846105 2.43292318 -69.25 2.625 C-67.99300293 2.63080078 -66.73600586 2.63660156 -65.44091797 2.64257812 C-56.22812988 2.76809612 -47.26185766 3.63667423 -38.14697266 4.91894531 C-24.42098605 6.84137861 -12.19794216 7.39269222 0 0 Z " fill="#030303" transform="translate(134,9)"/>
<path d="M0 0 C1.03382813 -0.03738281 2.06765625 -0.07476563 3.1328125 -0.11328125 C5.875 0.3125 5.875 0.3125 7.52438354 1.98014832 C12.44987404 10.48587621 7.95894027 24.21127363 6.2421875 33.41796875 C5.96428252 34.95121247 5.68721209 36.48460766 5.41091919 38.0181427 C4.83115153 41.22233791 4.24379986 44.42501269 3.65039062 47.62670898 C2.90573213 51.64585363 2.17633249 55.66756847 1.45212936 59.69044304 C-1.43295032 75.69372811 -4.43050345 91.6235564 -8.34133911 107.41459656 C-10.08670699 114.27723319 -10.08670699 114.27723319 -10.125 121.3125 C-8.20774006 123.64402308 -8.20774006 123.64402308 -4.875 123.6875 C0.48043299 123.1519567 3.37318826 120.85722065 7.0625 117.0625 C8.875 115.3125 8.875 115.3125 11.875 115.3125 C13.48245059 118.52740118 13.27805242 120.7426071 12.875 124.3125 C8.13855145 133.22611166 -0.53052653 140.3591263 -10.125 143.3125 C-17.26807022 144.96969229 -23.43345245 144.3433075 -30.125 141.3125 C-34.36859616 138.39502764 -35.42394425 135.88161543 -36.4375 131 C-36.68566909 129.44040527 -36.92126547 127.87851911 -37.125 126.3125 C-37.599375 127.1375 -38.07375 127.9625 -38.5625 128.8125 C-43.76228386 136.51182908 -51.08424499 142.08708338 -60.125 144.3125 C-67.1613643 145.35171688 -73.13142558 144.1819149 -79.125 140.3125 C-85.24088818 135.2782427 -87.53092415 128.4284736 -88.42675781 120.71386719 C-88.56214072 118.05133661 -88.59306943 115.41575001 -88.5625 112.75 C-88.55347656 111.79399902 -88.54445313 110.83799805 -88.53515625 109.85302734 C-88.0899415 91.31787174 -81.93552096 73.07194843 -69.125 59.3125 C-68.63 58.77625 -68.135 58.24 -67.625 57.6875 C-60.3731625 50.725736 -49.7728626 45.81422548 -39.8125 45.0625 C-33.00439598 45.52406637 -28.85740288 47.44685054 -24.125 52.3125 C-23.30403041 47.72727288 -22.48632787 43.14147819 -21.67138672 38.55517578 C-21.39489613 37.00163828 -21.1175801 35.44824742 -20.83935547 33.89501953 C-20.43488956 31.63614312 -20.03375455 29.37669171 -19.6328125 27.1171875 C-19.43199066 26.00437408 -19.43199066 26.00437408 -19.22711182 24.86907959 C-18.59694196 21.3104791 -18.03859671 17.77140518 -17.65917969 14.17675781 C-17.45276855 12.29875488 -17.45276855 12.29875488 -17.2421875 10.3828125 C-17.14276855 9.27953613 -17.04334961 8.17625977 -16.94091797 7.03955078 C-16.125 4.3125 -16.125 4.3125 -13.70703125 2.47485352 C-9.19204535 0.44234143 -4.91756504 0.11708488 0 0 Z M-52.375 73.4375 C-60.50565529 86.69498516 -64.59611118 103.31320923 -61.66015625 118.7578125 C-60.55220293 121.89155031 -59.23783891 123.24164766 -56.4375 125 C-51.71784213 125.44525074 -48.93400088 124.02450862 -45.125 121.3125 C-37.38980358 114.42888483 -34.69142064 104.78690971 -32.5 95 C-32.28907715 94.08009277 -32.0781543 93.16018555 -31.86083984 92.21240234 C-27.65355608 77.65450056 -27.65355608 77.65450056 -30.1875 63.375 C-39.38118828 58.33329998 -47.27912929 66.36861268 -52.375 73.4375 Z " fill="#020202" transform="translate(360.125,19.6875)"/>
<path d="M0 0 C0.99 0.99 0.99 0.99 2 2 C5.21708777 1.71613931 7.64620793 0.7214621 10.625 -0.5625 C15.58845186 -2.49483622 20.7396773 -2.68189368 26 -2 C28 0 28 0 28.05566406 1.81030273 C27.28037676 7.65301926 26.12085223 13.3319914 24.75 19.0625 C22.5976849 28.27935174 20.6058796 37.52042484 18.70019531 46.79125977 C18.50651367 47.73283936 18.31283203 48.67441895 18.11328125 49.64453125 C17.83653564 50.99720093 17.83653564 50.99720093 17.55419922 52.37719727 C16.87067535 55.61204174 16.11383438 58.82767 15.33178711 62.04003906 C14.79764799 65.19535097 15.24636079 67.92263989 16 71 C16.66 71.66 17.32 72.32 18 73 C24.59754682 72.89004089 27.23518118 71.42447462 32 67 C32.66 67 33.32 67 34 67 C34.81599351 70.70906142 35.22854542 73.28389101 34.0625 76.9375 C28.4634314 85.25126852 21.30847146 91.19252856 11.45703125 93.62890625 C4.38278386 94.67084966 -1.38178853 93.22659167 -7.4375 89.5 C-10.00661494 85.3894161 -10.37760896 80.74982639 -11 76 C-11.52787109 76.87011719 -11.52787109 76.87011719 -12.06640625 77.7578125 C-16.92830005 85.45052175 -21.70791121 90.99106797 -30.68359375 93.52734375 C-38.43771961 95.10955156 -45.13008644 94.03778032 -52 90 C-58.459444 84.53905784 -62.18729848 77.18213688 -64 69 C-65.27027596 47.75931994 -60.84658726 27.56673119 -46.84375 10.890625 C-34.78395384 -1.47577615 -16.13974169 -9.91544669 0 0 Z M-24.52734375 20.84765625 C-32.7125635 32.81066973 -37.77804662 48.42869111 -36 63 C-35.08556162 67.27675797 -33.6399753 70.30950033 -30.625 73.5625 C-28.13307823 75.21265985 -28.13307823 75.21265985 -25.5 74.9375 C-18.58125368 72.34297013 -15.28801296 68.54113984 -12 62 C-8.31428367 52.22246172 -6.21707818 41.95271322 -4.0625 31.75 C-3.70853149 30.12481445 -3.70853149 30.12481445 -3.34741211 28.46679688 C-3.14124268 27.44134766 -2.93507324 26.41589844 -2.72265625 25.359375 C-2.53453369 24.44639648 -2.34641113 23.53341797 -2.15258789 22.59277344 C-1.97134023 19.51301313 -2.61078829 17.73216516 -4 15 C-6.08962478 12.91037522 -7.409403 12.11173457 -10.3125 11.5625 C-16.41896248 12.55657529 -20.78312916 16.12495357 -24.52734375 20.84765625 Z " fill="#020202" transform="translate(549,70)"/>
<path d="M0 0 C7.37131972 7.0066608 10.97497465 16.48357744 11.5234375 26.56640625 C11.91891754 45.59266989 6.73513883 63.32506825 -6.61669922 77.37939453 C-15.25621433 86.03665599 -25.16868028 91.1839108 -37.5 91.625 C-46.94471682 91.49869621 -55.54922843 88.2483996 -62.5 81.8125 C-72.26357813 71.26783561 -72.48662224 58.51334008 -71.98730469 44.91064453 C-70.72200306 26.55670218 -60.56973034 12.12752927 -47.38671875 0.17578125 C-33.45119858 -11.30477682 -14.08960041 -11.52785488 0 0 Z M-33.34765625 14.1875 C-43.31677387 28.05757669 -48.10943343 48.16952606 -46.5625 65.11328125 C-45.92350164 68.59924551 -45.04912121 71.00692256 -43.125 74 C-40.7772522 75.6542269 -40.7772522 75.6542269 -37.4375 75.4375 C-31.82036969 73.79109974 -28.79272884 70.8418549 -25.6171875 66.08984375 C-24.95133803 64.84254356 -24.30898926 63.58248598 -23.6875 62.3125 C-23.34912109 61.6220459 -23.01074219 60.9315918 -22.66210938 60.22021484 C-17.35109309 48.68998825 -15.52123632 36.11549397 -15.375 23.5 C-15.3646875 22.7692627 -15.354375 22.03852539 -15.34375 21.28564453 C-15.42489832 16.46070049 -16.26997465 11.91752535 -19.8125 8.375 C-25.87120602 7.6704993 -29.42516621 9.55636672 -33.34765625 14.1875 Z " fill="#020303" transform="translate(167.8125,73.625)"/>
<path d="M0 0 C6.65395634 6.04792686 11.43232772 14.52162038 12.07519531 23.63085938 C12.43606286 45.0982824 9.12431541 62.187133 -5.4921875 78.71875 C-14.10144355 87.44469778 -24.39152055 92.36543025 -36.7734375 92.78515625 C-46.8202895 92.3604351 -54.80720526 89.01635297 -61.7109375 81.66015625 C-70.13512238 71.56229226 -71.75656608 59.31911629 -70.88476562 46.49536133 C-69.30328129 30.06005941 -61.00462711 14.43255058 -48.85546875 3.3046875 C-34.578243 -8.22030196 -15.39442771 -12.1944624 0 0 Z M-32.1484375 15.47265625 C-41.65084968 29.57300981 -46.78422208 48.33907889 -45.0859375 65.34765625 C-43.69261336 71.87676945 -43.69261336 71.87676945 -39.0859375 76.34765625 C-33.32691596 76.23899547 -30.01927664 74.37877634 -26.0859375 70.34765625 C-15.94379614 55.01418167 -11.41630804 32.94906881 -14.51171875 14.859375 C-15.1252245 12.72445759 -15.1252245 12.72445759 -17.0859375 10.34765625 C-23.84810638 7.9234825 -27.45195212 10.63385313 -32.1484375 15.47265625 Z " fill="#030303" transform="translate(255.0859375,72.65234375)"/>
<path d="M0 0 C1.23322843 3.58348444 0.7721117 6.18697824 0.00390625 9.859375 C-0.22490234 10.97441406 -0.45371094 12.08945312 -0.68945312 13.23828125 C-0.93630859 14.39714844 -1.18316406 15.55601563 -1.4375 16.75 C-1.68048828 17.92433594 -1.92347656 19.09867188 -2.17382812 20.30859375 C-2.77480798 23.20743777 -3.38380502 26.1043588 -4 29 C-2.73542969 28.97679688 -1.47085938 28.95359375 -0.16796875 28.9296875 C1.4921816 28.91092874 3.15233833 28.89272865 4.8125 28.875 C6.06256836 28.84986328 6.06256836 28.84986328 7.33789062 28.82421875 C8.14033203 28.81777344 8.94277344 28.81132813 9.76953125 28.8046875 C10.50792236 28.79421387 11.24631348 28.78374023 12.00708008 28.77294922 C14 29 14 29 17 31 C17.36328125 33.0234375 17.36328125 33.0234375 17.3125 35.375 C17.30863281 36.14585938 17.30476562 36.91671875 17.30078125 37.7109375 C17 40 17 40 15 44 C4.605 44.495 4.605 44.495 -6 45 C-7.14809345 50.79684684 -8.29023023 56.59426246 -9.41796875 62.39501953 C-9.80262181 64.36443029 -10.19058433 66.33319788 -10.58203125 68.30126953 C-11.14692943 71.14449431 -11.69954016 73.98988654 -12.25 76.8359375 C-12.42499023 77.70302338 -12.59998047 78.57010925 -12.78027344 79.46347046 C-14.31738982 87.52608276 -15.7814034 95.8278949 -11 103 C-7.4477427 104.77612865 -3.7467473 103.9919618 0 103 C2.25098031 101.65177712 4.18166788 100.17413244 6.17578125 98.47265625 C8.02892793 96.97664704 9.84003062 95.98700588 12 95 C13 96 13 96 13.4375 99.5625 C13.32198295 106.04300641 9.21419768 109.68879938 4.94921875 114.140625 C-1.44561166 120.27421012 -8.07149544 124.08955091 -17.0625 124.4375 C-24.60768653 124.07088435 -30.9685604 121.97765171 -36.4921875 116.7109375 C-41.67129649 110.83412471 -42.36144856 105.59282234 -42.26489258 97.89477539 C-41.74948539 90.31662715 -40.13906949 82.93120866 -38.625 75.5 C-37.98777847 72.30295019 -37.35702675 69.10463822 -36.7265625 65.90625 C-36.57479553 65.14280273 -36.42302856 64.37935547 -36.2666626 63.59277344 C-34.98513193 57.0876486 -33.92813352 50.56563111 -33 44 C-34.11375 44.061875 -35.2275 44.12375 -36.375 44.1875 C-37.57125 44.125625 -38.7675 44.06375 -40 44 C-42.2582408 40.61263881 -42.22893647 38.9617275 -41.6015625 35.0078125 C-40.58187041 31.60442462 -38.84420795 30.02254787 -36 28 C-32.6875 27.6875 -32.6875 27.6875 -30 28 C-29.96261719 27.39414063 -29.92523437 26.78828125 -29.88671875 26.1640625 C-29.29474395 18.61928564 -28.42708625 11.25923011 -23.8125 5.0625 C-16.17522152 -0.53817089 -9.18009763 -0.37783938 0 0 Z " fill="#020202" transform="translate(628,40)"/>
<path d="M0 0 C1.30324219 -0.00515625 2.60648438 -0.0103125 3.94921875 -0.015625 C7.3125 0.25 7.3125 0.25 10.3125 2.25 C9.88904297 4.12171875 9.88904297 4.12171875 9.45703125 6.03125 C7.98231683 12.67070173 6.67362963 19.34234654 5.35473633 26.01416016 C4.22815245 31.70190415 3.07973655 37.38293186 1.875 43.0546875 C1.64466064 44.15619141 1.41432129 45.25769531 1.17700195 46.39257812 C0.73891753 48.4842614 0.2926738 50.57425944 -0.16333008 52.66210938 C-1.48662292 59.0446124 -2.73813341 65.7437012 -1.6875 72.25 C0.22206386 74.78198389 0.92606489 75.18988787 4.125 75.6875 C8.07907144 75.14478431 10.12881951 73.60315514 13.3125 71.25 C14.6316582 70.55570621 15.95899406 69.87469505 17.3125 69.25 C18.80840709 72.24181417 18.73993011 73.8916206 18.3125 77.25 C15.08411408 83.9092905 10.50735213 88.350002 4.3125 92.25 C3.36375 92.848125 2.415 93.44625 1.4375 94.0625 C-5.76567971 96.79970829 -12.46632991 96.77740953 -19.6875 94.25 C-25.34031937 91.09746612 -28.65053243 87.84241893 -31.0625 81.8125 C-33.30743246 71.26585388 -28.82686074 58.43121262 -26.75 48.0625 C-24.84215157 38.45287991 -22.99282806 28.85207856 -21.71313477 19.1340332 C-20.94086649 13.66122975 -19.82380003 7.45996555 -15.875 3.375 C-10.58216949 0.65297288 -5.92834687 -0.02359541 0 0 Z " fill="#030303" transform="translate(674.6875,67.75)"/>
<path d="M0 0 C1.2065625 0.0309375 1.2065625 0.0309375 2.4375 0.0625 C9.4375 15.41275381 9.4375 15.41275381 9.4375 20.0625 C10.70207031 20.11148437 11.96664062 20.16046875 13.26953125 20.2109375 C14.92970947 20.2859738 16.58986464 20.36152127 18.25 20.4375 C19.50006836 20.48390625 19.50006836 20.48390625 20.77539062 20.53125 C21.57783203 20.56992187 22.38027344 20.60859375 23.20703125 20.6484375 C24.31461792 20.69556885 24.31461792 20.69556885 25.44458008 20.74365234 C27.4375 21.0625 27.4375 21.0625 30.4375 23.0625 C30.91796875 25.43359375 30.91796875 25.43359375 30.4375 28.0625 C28.42578125 30.16015625 28.42578125 30.16015625 25.75 32.125 C24.44482422 33.10146484 24.44482422 33.10146484 23.11328125 34.09765625 C22.23027344 34.74605469 21.34726562 35.39445312 20.4375 36.0625 C18.76522234 37.38878918 17.0968495 38.72007131 15.4375 40.0625 C15.72625 40.94292969 16.015 41.82335938 16.3125 42.73046875 C16.68375 43.89191406 17.055 45.05335937 17.4375 46.25 C17.80875 47.39855469 18.18 48.54710937 18.5625 49.73046875 C19.35409866 52.74490471 19.87491063 54.98422269 19.4375 58.0625 C16.4375 60.0625 16.4375 60.0625 14.0625 59.9140625 C10.05103314 58.61272355 7.2137301 56.05120692 3.9375 53.4609375 C1.55102067 51.84709286 1.55102067 51.84709286 -1.0625 52.125 C-4.9479677 53.58205039 -7.83242371 56.11028343 -11.0625 58.6640625 C-13.5625 60.0625 -13.5625 60.0625 -16.25 59.8984375 C-18.5625 59.0625 -18.5625 59.0625 -20.5625 57.0625 C-20.390625 55.21484375 -20.390625 55.21484375 -19.8125 53 C-19.61398437 52.2059375 -19.41546875 51.411875 -19.2109375 50.59375 C-18.99695313 49.7584375 -18.78296875 48.923125 -18.5625 48.0625 C-18.18158695 46.37632489 -17.80627264 44.68887181 -17.4375 43 C-17.14618495 41.68742191 -16.854578 40.37490852 -16.5625 39.0625 C-17.56152344 38.39863281 -18.56054688 37.73476563 -19.58984375 37.05078125 C-20.89375305 36.15962021 -22.19710999 35.26765059 -23.5 34.375 C-24.15935547 33.93994141 -24.81871094 33.50488281 -25.49804688 33.05664062 C-30.2667994 29.75519657 -30.2667994 29.75519657 -31.69140625 26.41796875 C-31.5625 24.0625 -31.5625 24.0625 -30.30517578 22.44726562 C-28.22999253 20.7982828 -27.17180886 20.64931612 -24.55078125 20.55078125 C-23.41479492 20.49760742 -23.41479492 20.49760742 -22.25585938 20.44335938 C-21.47017578 20.42080078 -20.68449219 20.39824219 -19.875 20.375 C-18.67907227 20.32375977 -18.67907227 20.32375977 -17.45898438 20.27148438 C-15.49398096 20.18911896 -13.52826304 20.12412933 -11.5625 20.0625 C-11.23636719 19.27746094 -10.91023437 18.49242188 -10.57421875 17.68359375 C-9.23976494 14.47539358 -7.90174865 11.26870125 -6.5625 8.0625 C-6.08490234 6.91394531 -6.08490234 6.91394531 -5.59765625 5.7421875 C-3.21603856 0.07843996 -3.21603856 0.07843996 0 0 Z " fill="#FA7629" transform="translate(677.5625,4.9375)"/>
<path d="M0 0 C1.25 1.5625 1.25 1.5625 2 4 C0.93237266 6.57001015 -0.46544943 8.6530403 -2 11 C-3.13643966 7.59068103 -2.86747764 6.99664544 -1.5625 3.8125 C-1.13130859 2.73935547 -1.13130859 2.73935547 -0.69140625 1.64453125 C-0.46324219 1.10183594 -0.23507812 0.55914062 0 0 Z " fill="#F9650F" transform="translate(671,13)"/>
</svg>
